<?xml version="1.0" encoding="UTF-8"?>
<svg width="400" height="300" viewBox="0 0 400 300" fill="none" xmlns="http://www.w3.org/2000/svg">
  <!-- Background -->
  <rect width="400" height="300" fill="#F8FAFC" rx="12"/>
  
  <!-- Central warehouse/storage -->
  <rect x="150" y="100" width="100" height="80" fill="#3B82F6" rx="8"/>
  <rect x="160" y="110" width="80" height="60" fill="white" rx="4"/>
  
  <!-- Warehouse shelves -->
  <rect x="165" y="115" width="70" height="8" fill="#E5E7EB" rx="2"/>
  <rect x="165" y="125" width="70" height="8" fill="#E5E7EB" rx="2"/>
  <rect x="165" y="135" width="70" height="8" fill="#E5E7EB" rx="2"/>
  <rect x="165" y="145" width="70" height="8" fill="#E5E7EB" rx="2"/>
  <rect x="165" y="155" width="70" height="8" fill="#E5E7EB" rx="2"/>
  
  <!-- Inventory items on shelves -->
  <rect x="170" y="118" width="8" height="4" fill="#10B981" rx="1"/>
  <rect x="180" y="118" width="8" height="4" fill="#10B981" rx="1"/>
  <rect x="190" y="118" width="8" height="4" fill="#10B981" rx="1"/>
  <rect x="200" y="118" width="8" height="4" fill="#10B981" rx="1"/>
  <rect x="210" y="118" width="8" height="4" fill="#10B981" rx="1"/>
  
  <rect x="170" y="128" width="8" height="4" fill="#EF4444" rx="1"/>
  <rect x="180" y="128" width="8" height="4" fill="#EF4444" rx="1"/>
  <rect x="190" y="128" width="8" height="4" fill="#EF4444" rx="1"/>
  <rect x="200" y="128" width="8" height="4" fill="#EF4444" rx="1"/>
  
  <rect x="170" y="138" width="8" height="4" fill="#F59E0B" rx="1"/>
  <rect x="180" y="138" width="8" height="4" fill="#F59E0B" rx="1"/>
  <rect x="190" y="138" width="8" height="4" fill="#F59E0B" rx="1"/>
  
  <!-- Purchase order document -->
  <rect x="80" y="60" width="60" height="80" fill="#8B5CF6" rx="6"/>
  <rect x="85" y="65" width="50" height="70" fill="white" rx="3"/>
  
  <!-- PO header -->
  <rect x="90" y="70" width="40" height="8" fill="#8B5CF6" rx="2"/>
  <text x="110" y="76" text-anchor="middle" fill="white" font-family="Arial" font-size="6" font-weight="bold">PO #2024-001</text>
  
  <!-- PO content -->
  <rect x="90" y="82" width="35" height="2" fill="#E5E7EB" rx="1"/>
  <rect x="90" y="86" width="30" height="2" fill="#E5E7EB" rx="1"/>
  <rect x="90" y="90" width="40" height="2" fill="#E5E7EB" rx="1"/>
  <rect x="90" y="94" width="25" height="2" fill="#E5E7EB" rx="1"/>
  <rect x="90" y="98" width="35" height="2" fill="#E5E7EB" rx="1"/>
  
  <!-- Delivery truck -->
  <rect x="260" y="120" width="80" height="40" fill="#059669" rx="6"/>
  <rect x="265" y="125" width="70" height="30" fill="white" rx="3"/>
  
  <!-- Truck body -->
  <rect x="270" y="130" width="60" height="20" fill="#059669" rx="2"/>
  <circle cx="280" cy="155" r="6" fill="#374151"/>
  <circle cx="320" cy="155" r="6" fill="#374151"/>
  
  <!-- Delivery boxes -->
  <rect x="275" y="135" width="8" height="6" fill="#F59E0B" rx="1"/>
  <rect x="285" y="135" width="8" height="6" fill="#F59E0B" rx="1"/>
  <rect x="295" y="135" width="8" height="6" fill="#F59E0B" rx="1"/>
  <rect x="305" y="135" width="8" height="6" fill="#F59E0B" rx="1"/>
  
  <!-- Supplier building -->
  <rect x="50" y="200" width="60" height="50" fill="#6B7280" rx="6"/>
  <rect x="55" y="205" width="50" height="40" fill="white" rx="3"/>
  
  <!-- Building windows -->
  <rect x="60" y="210" width="8" height="8" fill="#3B82F6" rx="1"/>
  <rect x="70" y="210" width="8" height="8" fill="#3B82F6" rx="1"/>
  <rect x="80" y="210" width="8" height="8" fill="#3B82F6" rx="1"/>
  <rect x="90" y="210" width="8" height="8" fill="#3B82F6" rx="1"/>
  
  <rect x="60" y="220" width="8" height="8" fill="#3B82F6" rx="1"/>
  <rect x="70" y="220" width="8" height="8" fill="#3B82F6" rx="1"/>
  <rect x="80" y="220" width="8" height="8" fill="#3B82F6" rx="1"/>
  <rect x="90" y="220" width="8" height="8" fill="#3B82F6" rx="1"/>
  
  <!-- Building door -->
  <rect x="75" y="235" width="10" height="10" fill="#8B5CF6" rx="2"/>
  
  <!-- Finance integration -->
  <rect x="290" y="200" width="60" height="50" fill="#EF4444" rx="6"/>
  <rect x="295" y="205" width="50" height="40" fill="white" rx="3"/>
  
  <!-- Finance symbols -->
  <circle cx="315" cy="220" r="8" fill="#EF4444"/>
  <text x="315" y="225" text-anchor="middle" fill="white" font-family="Arial" font-size="8" font-weight="bold">₽</text>
  
  <rect x="300" y="235" width="30" height="3" fill="#EF4444" rx="1"/>
  <rect x="300" y="240" width="20" height="3" fill="#EF4444" rx="1"/>
  
  <!-- Stock level indicators -->
  <rect x="200" y="190" width="40" height="20" fill="#10B981" rx="4"/>
  <rect x="205" y="195" width="30" height="10" fill="white" rx="2"/>
  <text x="220" y="202" text-anchor="middle" fill="#10B981" font-family="Arial" font-size="8" font-weight="bold">Stock OK</text>
  
  <!-- Replenishment alert -->
  <rect x="200" y="220" width="40" height="20" fill="#F59E0B" rx="4"/>
  <rect x="205" y="225" width="30" height="10" fill="white" rx="2"/>
  <text x="220" y="232" text-anchor="middle" fill="#F59E0B" font-family="Arial" font-size="6" font-weight="bold">Reorder</text>
  
  <!-- Connection arrows -->
  <path d="M140 100 L155 140" stroke="#3B82F6" stroke-width="2" stroke-linecap="round"/>
  <path d="M250 140 L260 140" stroke="#059669" stroke-width="2" stroke-linecap="round"/>
  <path d="M110 200 L150 180" stroke="#6B7280" stroke-width="2" stroke-linecap="round"/>
  <path d="M250 180 L290 200" stroke="#EF4444" stroke-width="2" stroke-linecap="round"/>
  
  <!-- Title -->
  <text x="200" y="280" text-anchor="middle" fill="#1F2937" font-family="Arial" font-size="16" font-weight="bold">Procurement</text>
  <text x="200" y="295" text-anchor="middle" fill="#6B7280" font-family="Arial" font-size="12">Поставщики, заказы, склад и остатки</text>
</svg>
