<svg width="800" height="600" viewBox="0 0 800 600" fill="none" xmlns="http://www.w3.org/2000/svg">
  <!-- Фон -->
  <rect width="800" height="600" fill="#F8FAFC"/>
  
  <!-- Заголовок -->
  <rect x="0" y="0" width="800" height="60" fill="#FFFFFF"/>
  <rect x="0" y="60" width="800" height="1" fill="#E2E8F0"/>
  
  <!-- Логотип -->
  <text x="20" y="35" font-family="system-ui, sans-serif" font-size="18" font-weight="600" fill="#0F172A">KAKDOMA</text>
  
  <!-- Навигация -->
  <rect x="20" y="80" width="200" height="40" rx="8" fill="#F1F5F9"/>
  <text x="30" y="105" font-family="system-ui, sans-serif" font-size="14" font-weight="500" fill="#64748B">Дашборд</text>
  
  <rect x="240" y="80" width="120" height="40" rx="8" fill="#F1F5F9"/>
  <text x="250" y="105" font-family="system-ui, sans-serif" font-size="14" font-weight="500" fill="#64748B">Бронирования</text>
  
  <rect x="380" y="80" width="120" height="40" rx="8" fill="#2563EB"/>
  <text x="390" y="105" font-family="system-ui, sans-serif" font-size="14" font-weight="500" fill="#FFFFFF">Аналитика</text>
  
  <!-- Основной контент -->
  <rect x="20" y="140" width="760" height="440" rx="12" fill="#FFFFFF" stroke="#E2E8F0"/>
  
  <!-- Заголовок секции -->
  <text x="30" y="170" font-family="system-ui, sans-serif" font-size="20" font-weight="600" fill="#0F172A">Аналитика доходности</text>
  <text x="30" y="195" font-family="system-ui, sans-serif" font-size="14" fill="#64748B">Детальная статистика по всем объектам</text>
  
  <!-- График доходов -->
  <rect x="30" y="220" width="500" height="200" rx="12" fill="#F8FAFC" stroke="#E2E8F0"/>
  <text x="40" y="245" font-family="system-ui, sans-serif" font-size="16" font-weight="600" fill="#0F172A">📈 Динамика доходов</text>
  
  <!-- Оси графика -->
  <line x1="60" y1="400" x2="500" y2="400" stroke="#E2E8F0" stroke-width="2"/>
  <line x1="60" y1="250" x2="60" y2="400" stroke="#E2E8F0" stroke-width="2"/>
  
  <!-- Подписи осей -->
  <text x="50" y="250" font-family="system-ui, sans-serif" font-size="10" fill="#64748B">₽300k</text>
  <text x="50" y="300" font-family="system-ui, sans-serif" font-size="10" fill="#64748B">₽200k</text>
  <text x="50" y="350" font-family="system-ui, sans-serif" font-size="10" fill="#64748B">₽100k</text>
  <text x="50" y="410" font-family="system-ui, sans-serif" font-size="10" fill="#64748B">0</text>
  
  <!-- Месяцы -->
  <text x="100" y="420" font-family="system-ui, sans-serif" font-size="10" fill="#64748B">Янв</text>
  <text x="150" y="420" font-family="system-ui, sans-serif" font-size="10" fill="#64748B">Фев</text>
  <text x="200" y="420" font-family="system-ui, sans-serif" font-size="10" fill="#64748B">Мар</text>
  <text x="250" y="420" font-family="system-ui, sans-serif" font-size="10" fill="#64748B">Апр</text>
  <text x="300" y="420" font-family="system-ui, sans-serif" font-size="10" fill="#64748B">Май</text>
  <text x="350" y="420" font-family="system-ui, sans-serif" font-size="10" fill="#64748B">Июн</text>
  <text x="400" y="420" font-family="system-ui, sans-serif" font-size="10" fill="#64748B">Июл</text>
  <text x="450" y="420" font-family="system-ui, sans-serif" font-size="10" fill="#64748B">Авг</text>
  
  <!-- Линия графика -->
  <polyline points="100,350 150,320 200,280 250,300 300,250 350,270 400,240 450,220" 
            fill="none" stroke="#2563EB" stroke-width="3"/>
  
  <!-- Точки на графике -->
  <circle cx="100" cy="350" r="4" fill="#2563EB"/>
  <circle cx="150" cy="320" r="4" fill="#2563EB"/>
  <circle cx="200" cy="280" r="4" fill="#2563EB"/>
  <circle cx="250" cy="300" r="4" fill="#2563EB"/>
  <circle cx="300" cy="250" r="4" fill="#2563EB"/>
  <circle cx="350" cy="270" r="4" fill="#2563EB"/>
  <circle cx="400" cy="240" r="4" fill="#2563EB"/>
  <circle cx="450" cy="220" r="4" fill="#2563EB"/>
  
  <!-- Статистика по объектам -->
  <rect x="550" y="220" width="220" height="200" rx="12" fill="#F8FAFC" stroke="#E2E8F0"/>
  <text x="560" y="245" font-family="system-ui, sans-serif" font-size="16" font-weight="600" fill="#0F172A">🏠 Топ объекты</text>
  
  <!-- Список объектов -->
  <rect x="560" y="260" width="200" height="30" rx="6" fill="#FFFFFF" stroke="#E2E8F0"/>
  <text x="570" y="280" font-family="system-ui, sans-serif" font-size="12" fill="#0F172A">Кв. №3 - ₽45,000</text>
  <rect x="740" y="270" width="10" height="10" rx="5" fill="#10B981"/>
  
  <rect x="560" y="300" width="200" height="30" rx="6" fill="#FFFFFF" stroke="#E2E8F0"/>
  <text x="570" y="320" font-family="system-ui, sans-serif" font-size="12" fill="#0F172A">Кв. №1 - ₽38,000</text>
  <rect x="740" y="310" width="10" height="10" rx="5" fill="#10B981"/>
  
  <rect x="560" y="340" width="200" height="30" rx="6" fill="#FFFFFF" stroke="#E2E8F0"/>
  <text x="570" y="360" font-family="system-ui, sans-serif" font-size="12" fill="#0F172A">Кв. №5 - ₽32,000</text>
  <rect x="740" y="350" width="10" height="10" rx="5" fill="#F59E0B"/>
  
  <rect x="560" y="380" width="200" height="30" rx="6" fill="#FFFFFF" stroke="#E2E8F0"/>
  <text x="570" y="400" font-family="system-ui, sans-serif" font-size="12" fill="#0F172A">Кв. №2 - ₽28,000</text>
  <rect x="740" y="390" width="10" height="10" rx="5" fill="#EF4444"/>
  
  <!-- Ключевые метрики -->
  <rect x="30" y="440" width="240" height="120" rx="12" fill="#F0F9FF" stroke="#0EA5E9"/>
  <text x="40" y="465" font-family="system-ui, sans-serif" font-size="16" font-weight="600" fill="#0F172A">📊 Ключевые метрики</text>
  
  <text x="40" y="485" font-family="system-ui, sans-serif" font-size="12" fill="#64748B">Средний доход на объект: ₽35,750</text>
  <text x="40" y="500" font-family="system-ui, sans-serif" font-size="12" fill="#64748B">Загрузка: 87%</text>
  <text x="40" y="515" font-family="system-ui, sans-serif" font-size="12" fill="#64748B">Средний чек: ₽8,500</text>
  <text x="40" y="530" font-family="system-ui, sans-serif" font-size="12" fill="#64748B">ROI: 24%</text>
  
  <!-- Прогнозы -->
  <rect x="290" y="440" width="240" height="120" rx="12" fill="#F0FDF4" stroke="#22C55E"/>
  <text x="300" y="465" font-family="system-ui, sans-serif" font-size="16" font-weight="600" fill="#0F172A">🔮 Прогнозы</text>
  
  <text x="300" y="485" font-family="system-ui, sans-serif" font-size="12" fill="#64748B">Прогноз на следующий месяц: ₽165,000</text>
  <text x="300" y="500" font-family="system-ui, sans-serif" font-size="12" fill="#64748B">Рекомендуемая цена: +15%</text>
  <text x="300" y="515" font-family="system-ui, sans-serif" font-size="12" fill="#64748B">Оптимальная загрузка: 85-90%</text>
  <text x="300" y="530" font-family="system-ui, sans-serif" font-size="12" fill="#64748B">Сезонность: +8% в декабре</text>
  
  <!-- Экспорт -->
  <rect x="550" y="440" width="220" height="120" rx="12" fill="#F3E8FF" stroke="#A855F7"/>
  <text x="560" y="465" font-family="system-ui, sans-serif" font-size="16" font-weight="600" fill="#0F172A">📤 Экспорт данных</text>
  
  <text x="560" y="485" font-family="system-ui, sans-serif" font-size="12" fill="#64748B">Excel отчет</text>
  <text x="560" y="500" font-family="system-ui, sans-serif" font-size="12" fill="#64748B">PDF презентация</text>
  <text x="560" y="515" font-family="system-ui, sans-serif" font-size="12" fill="#64748B">API интеграция</text>
  
  <!-- Кнопка экспорта -->
  <rect x="560" y="525" width="100" height="24" rx="12" fill="#A855F7"/>
  <text x="570" y="540" font-family="system-ui, sans-serif" font-size="11" font-weight="500" fill="#FFFFFF">Экспортировать</text>
</svg>
