<?xml version="1.0" encoding="UTF-8"?>
<svg width="400" height="300" viewBox="0 0 400 300" fill="none" xmlns="http://www.w3.org/2000/svg">
  <!-- Background -->
  <rect width="400" height="300" fill="#F8FAFC" rx="12"/>
  
  <!-- Main contract document -->
  <rect x="80" y="60" width="200" height="160" fill="#3B82F6" rx="8"/>
  <rect x="90" y="70" width="180" height="140" fill="white" rx="4"/>
  
  <!-- Contract header -->
  <rect x="95" y="75" width="170" height="12" fill="#3B82F6" rx="2"/>
  <text x="180" y="84" text-anchor="middle" fill="white" font-family="Arial" font-size="8" font-weight="bold">ДОГОВОР АРЕНДЫ №2024-001</text>
  
  <!-- Contract content lines -->
  <rect x="100" y="95" width="150" height="3" fill="#E5E7EB" rx="1"/>
  <rect x="100" y="102" width="130" height="3" fill="#E5E7EB" rx="1"/>
  <rect x="100" y="109" width="140" height="3" fill="#E5E7EB" rx="1"/>
  <rect x="100" y="116" width="120" height="3" fill="#E5E7EB" rx="1"/>
  <rect x="100" y="123" width="160" height="3" fill="#E5E7EB" rx="1"/>
  <rect x="100" y="130" width="110" height="3" fill="#E5E7EB" rx="1"/>
  
  <!-- Signature lines -->
  <rect x="100" y="150" width="70" height="2" fill="#6B7280" rx="1"/>
  <text x="135" y="160" text-anchor="middle" fill="#6B7280" font-family="Arial" font-size="7">Гость</text>
  <rect x="180" y="150" width="70" height="2" fill="#6B7280" rx="1"/>
  <text x="215" y="160" text-anchor="middle" fill="#6B7280" font-family="Arial" font-size="7">Владелец</text>
  
  <!-- Deposit section -->
  <rect x="300" y="80" width="80" height="100" fill="#10B981" rx="6"/>
  <rect x="305" y="85" width="70" height="90" fill="white" rx="3"/>
  
  <!-- Deposit header -->
  <rect x="310" y="90" width="60" height="10" fill="#10B981" rx="2"/>
  <text x="340" y="98" text-anchor="middle" fill="white" font-family="Arial" font-size="7" font-weight="bold">ДЕПОЗИТ</text>
  
  <!-- Deposit amount -->
  <text x="340" y="115" text-anchor="middle" fill="#10B981" font-family="Arial" font-size="12" font-weight="bold">10,000 ₽</text>
  
  <!-- Deposit status -->
  <rect x="315" y="120" width="50" height="8" fill="#F59E0B" rx="2"/>
  <text x="340" y="127" text-anchor="middle" fill="white" font-family="Arial" font-size="6">HOLD</text>
  
  <!-- Deposit actions -->
  <rect x="315" y="135" width="15" height="8" fill="#EF4444" rx="1"/>
  <text x="322" y="141" text-anchor="middle" fill="white" font-family="Arial" font-size="5">CAPTURE</text>
  <rect x="335" y="135" width="15" height="8" fill="#10B981" rx="1"/>
  <text x="342" y="141" text-anchor="middle" fill="white" font-family="Arial" font-size="5">RELEASE</text>
  <rect x="355" y="135" width="15" height="8" fill="#3B82F6" rx="1"/>
  <text x="362" y="141" text-anchor="middle" fill="white" font-family="Arial" font-size="5">REFUND</text>
  
  <!-- Legal shield icon -->
  <circle cx="120" y="250" r="20" fill="#8B5CF6" stroke="#7C3AED" stroke-width="3"/>
  <path d="M110 245 L120 235 L130 245 L125 250 L115 250 Z" fill="white"/>
  <text x="120" y="255" text-anchor="middle" fill="white" font-family="Arial" font-size="8" font-weight="bold">⚖</text>
  
  <!-- Template icon -->
  <rect x="200" y="230" width="40" height="50" fill="#F59E0B" rx="4"/>
  <rect x="205" y="235" width="30" height="40" fill="white" rx="2"/>
  <rect x="210" y="245" width="20" height="2" fill="#F59E0B" rx="1"/>
  <rect x="210" y="250" width="15" height="2" fill="#F59E0B" rx="1"/>
  <rect x="210" y="255" width="18" height="2" fill="#F59E0B" rx="1"/>
  <rect x="210" y="260" width="12" height="2" fill="#F59E0B" rx="1"/>
  
  <!-- Audit log icon -->
  <rect x="280" y="230" width="40" height="50" fill="#6B7280" rx="4"/>
  <rect x="285" y="235" width="30" height="40" fill="white" rx="2"/>
  <circle cx="295" cy="245" r="3" fill="#10B981"/>
  <circle cx="305" cy="245" r="3" fill="#F59E0B"/>
  <circle cx="315" cy="245" r="3" fill="#EF4444"/>
  <rect x="290" y="255" width="20" height="2" fill="#6B7280" rx="1"/>
  <rect x="290" y="260" width="15" height="2" fill="#6B7280" rx="1"/>
  <rect x="290" y="265" width="18" height="2" fill="#6B7280" rx="1"/>
  
  <!-- Digital signature icon -->
  <rect x="340" y="230" width="40" height="50" fill="#059669" rx="4"/>
  <rect x="345" y="235" width="30" height="40" fill="white" rx="2"/>
  <path d="M350 250 L355 255 L365 245" stroke="#059669" stroke-width="2" stroke-linecap="round" stroke-linejoin="round" fill="none"/>
  <text x="360" y="275" text-anchor="middle" fill="#059669" font-family="Arial" font-size="6">Подпись</text>
  
  <!-- Title -->
  <text x="200" y="290" text-anchor="middle" fill="#1F2937" font-family="Arial" font-size="16" font-weight="bold">Legal</text>
  <text x="200" y="305" text-anchor="middle" fill="#6B7280" font-family="Arial" font-size="12">Договоры и защита интересов</text>
</svg>
