<?xml version="1.0" encoding="UTF-8"?>
<svg width="400" height="300" viewBox="0 0 400 300" fill="none" xmlns="http://www.w3.org/2000/svg">
  <!-- Background -->
  <rect width="400" height="300" fill="#F8FAFC" rx="12"/>
  
  <!-- Central hub -->
  <circle cx="200" cy="150" r="40" fill="#3B82F6" stroke="#1E40AF" stroke-width="3"/>
  <text x="200" y="155" text-anchor="middle" fill="white" font-family="Arial" font-size="10" font-weight="bold">PLACEMENT</text>
  
  <!-- Property/Listing in center -->
  <rect x="185" y="135" width="30" height="30" fill="white" rx="4"/>
  <rect x="190" y="140" width="20" height="20" fill="#3B82F6" rx="2"/>
  <text x="200" y="153" text-anchor="middle" fill="white" font-family="Arial" font-size="8">🏠</text>
  
  <!-- Airbnb channel -->
  <circle cx="120" cy="80" r="25" fill="#FF5A5F" stroke="#E00007" stroke-width="2"/>
  <text x="120" y="85" text-anchor="middle" fill="white" font-family="Arial" font-size="8" font-weight="bold">Airbnb</text>
  
  <!-- Booking.com channel -->
  <circle cx="280" cy="80" r="25" fill="#003580" stroke="#002A5A" stroke-width="2"/>
  <text x="280" y="85" text-anchor="middle" fill="white" font-family="Arial" font-size="7" font-weight="bold">Booking</text>
  
  <!-- Ostrovok channel -->
  <circle cx="120" cy="220" r="25" fill="#00A651" stroke="#008F47" stroke-width="2"/>
  <text x="120" y="225" text-anchor="middle" fill="white" font-family="Arial" font-size="7" font-weight="bold">Ostrovok</text>
  
  <!-- Own website channel -->
  <circle cx="280" cy="220" r="25" fill="#6B7280" stroke="#4B5563" stroke-width="2"/>
  <text x="280" y="225" text-anchor="middle" fill="white" font-family="Arial" font-size="6" font-weight="bold">Сайт</text>
  
  <!-- Connection lines -->
  <path d="M155 95 L175 125" stroke="#3B82F6" stroke-width="2" stroke-linecap="round"/>
  <path d="M245 95 L225 125" stroke="#3B82F6" stroke-width="2" stroke-linecap="round"/>
  <path d="M155 205 L175 175" stroke="#3B82F6" stroke-width="2" stroke-linecap="round"/>
  <path d="M245 205 L225 175" stroke="#3B82F6" stroke-width="2" stroke-linecap="round"/>
  
  <!-- Sync arrows -->
  <path d="M155 95 L175 125" stroke="#10B981" stroke-width="1" stroke-linecap="round" fill="none" stroke-dasharray="3,3"/>
  <path d="M245 95 L225 125" stroke="#10B981" stroke-width="1" stroke-linecap="round" fill="none" stroke-dasharray="3,3"/>
  <path d="M155 205 L175 175" stroke="#10B981" stroke-width="1" stroke-linecap="round" fill="none" stroke-dasharray="3,3"/>
  <path d="M245 205 L225 175" stroke="#10B981" stroke-width="1" stroke-linecap="round" fill="none" stroke-dasharray="3,3"/>
  
  <!-- Price tags -->
  <rect x="80" y="60" width="30" height="15" fill="#F59E0B" rx="2"/>
  <text x="95" y="70" text-anchor="middle" fill="white" font-family="Arial" font-size="8">5000₽</text>
  
  <rect x="290" y="60" width="30" height="15" fill="#F59E0B" rx="2"/>
  <text x="305" y="70" text-anchor="middle" fill="white" font-family="Arial" font-size="8">5000₽</text>
  
  <rect x="80" y="225" width="30" height="15" fill="#F59E0B" rx="2"/>
  <text x="95" y="235" text-anchor="middle" fill="white" font-family="Arial" font-size="8">5000₽</text>
  
  <rect x="290" y="225" width="30" height="15" fill="#F59E0B" rx="2"/>
  <text x="305" y="235" text-anchor="middle" fill="white" font-family="Arial" font-size="8">5000₽</text>
  
  <!-- Sync status indicators -->
  <circle cx="200" cy="100" r="6" fill="#10B981"/>
  <text x="200" y="104" text-anchor="middle" fill="white" font-family="Arial" font-size="6">✓</text>
  
  <circle cx="200" cy="200" r="6" fill="#10B981"/>
  <text x="200" y="204" text-anchor="middle" fill="white" font-family="Arial" font-size="6">✓</text>
  
  <!-- Content bundle icon -->
  <rect x="50" y="140" width="40" height="30" fill="#8B5CF6" rx="4"/>
  <rect x="55" y="145" width="30" height="20" fill="white" rx="2"/>
  <circle cx="65" cy="150" r="2" fill="#8B5CF6"/>
  <circle cx="70" cy="150" r="2" fill="#8B5CF6"/>
  <circle cx="75" cy="150" r="2" fill="#8B5CF6"/>
  <rect x="60" y="155" width="20" height="2" fill="#8B5CF6" rx="1"/>
  <rect x="60" y="159" width="15" height="2" fill="#8B5CF6" rx="1"/>
  
  <!-- Rate plan icon -->
  <rect x="310" y="140" width="40" height="30" fill="#EF4444" rx="4"/>
  <rect x="315" y="145" width="30" height="20" fill="white" rx="2"/>
  <rect x="320" y="150" width="20" height="2" fill="#EF4444" rx="1"/>
  <rect x="320" y="155" width="15" height="2" fill="#EF4444" rx="1"/>
  <rect x="320" y="160" width="18" height="2" fill="#EF4444" rx="1"/>
  
  <!-- Connection arrows to content -->
  <path d="M90 155 L155 140" stroke="#8B5CF6" stroke-width="2" stroke-linecap="round"/>
  <path d="M310 155 L245 140" stroke="#EF4444" stroke-width="2" stroke-linecap="round"/>
  
  <!-- Title -->
  <text x="200" y="280" text-anchor="middle" fill="#1F2937" font-family="Arial" font-size="16" font-weight="bold">Placement</text>
  <text x="200" y="295" text-anchor="middle" fill="#6B7280" font-family="Arial" font-size="12">Размещение и дистрибуция</text>
</svg>
